<?xml version="1.0" encoding="UTF-8" standalone="no"?>
<svg
   version="1.1"
   width="756.97198"
   height="815.48944"
   id="svg182"
   xml:space="preserve"
   xmlns="http://www.w3.org/2000/svg"
   xmlns:svg="http://www.w3.org/2000/svg"><defs
     id="defs182" /><path
     id="path5"
     style="fill:#e8a500;fill-opacity:1;stroke-width:0.947795"
     d="m 190.31926,336.95106 c 0,0 -56.64595,28.30887 -90.09295,50.15052 -33.724009,22.58317 -52.953284,49.28094 -68.847931,95.22538 -12.729335,36.54237 -8.056892,77.98906 8.030295,112.56087 9.168275,18.90383 19.142818,30.4522 27.701511,39.65947 35.058585,32.60132 79.494615,50.97984 129.940335,51.27518 15.78862,0.50657 70.97479,-2.11083 108.8371,-43.24812 36.0204,-39.13613 43.58994,80.55799 -62.99817,82.02031 C 207.88395,711.54012 162.59464,706.72264 140.88192,702.021 116.89916,696.71552 87.298605,682.86301 67.835613,667.92228 52.173723,656.58175 11.842366,621.68722 1.8895834,558.44981 -4.262016,515.24732 4.4279113,470.36227 30.582395,434.88941 86.9116,355.56027 190.31926,336.95106 190.31926,336.95106 Z m 150.56093,349.8513 c -5.7e-4,2.40256 0,4.805 0,7.20753 -0.0108,40.49317 -0.0296,80.98632 -0.0578,121.47959 -5.20184,-5.17931 -5.20184,-5.17931 -7.32321,-7.70454 -0.4441,-0.52497 -0.88834,-1.04983 -1.34595,-1.59057 -0.46237,-0.54905 -0.92475,-1.09809 -1.40109,-1.66371 C 238.70199,668.8078 88.820731,709.231 23.647817,537.34884 c 48.553447,-25.75283 38.335674,-96.33917 69.799728,-147.4161 0.523368,-0.38085 1.046737,-0.76167 1.586055,-1.15408 33.39367,-20.82273 -47.492377,156.0608 2.074372,200.76321 110.230648,99.41251 154.607948,-30.6823 243.903048,-83.00827 0,0 -0.13798,41.15293 -0.13087,180.26876 z" /><path
     d="m 290.0331,0 c 1.09958,0.366555 2.19935,0.73311202 3.33224,1.110769 0.15452,11.490061 0.2729,22.979819 0.34533,34.470691 0.0351,5.335824 0.0805,10.670907 0.15752,16.006316 0.072,5.149602 0.11242,10.298518 0.12959,15.44857 0.0127,1.96419 0.0362,3.928337 0.0718,5.892233 0.0485,2.752925 0.0549,5.503037 0.0521,8.256313 0.0229,0.810966 0.0478,1.621938 0.0716,2.457436 -0.0379,3.15023 -0.19519,5.598982 -2.30742,8.036002 -1.65681,1.37454 -3.41895,2.61927 -5.18618,3.84814 -2.50226,3.1548 -2.21465,4.66348 -2.08276,8.8168 0.6759,4.36568 2.25758,6.9091 5.41484,10.06647 4.12623,2.06284 8.83718,1.76058 13.32942,1.11071 3.13694,-2.43289 4.90402,-4.25446 6.66469,-7.77549 0.44158,-4.59382 0.27534,-7.22476 -1.80507,-11.38537 -2.84808,-3.69368 -2.84808,-3.69368 -9.30287,-6.38692 0,-29.32444 0,-58.648867 0,-88.861901 2.19962,-0.36655098 4.39876,-0.73310598 6.66486,-1.110769 0.61935,1.482367 0.61935,1.482367 1.25108,2.994699 18.95652,49.930631 18.95652,49.930631 49.6754,92.627231 1.2799,2.12616 1.2799,2.12616 1.18439,5.17204 -1.23016,4.38455 -3.06145,8.17635 -5.1113,12.22732 -12.3566,25.42618 -16.51715,51.11284 -18.11957,79.1425 -1.04984,0.0764 -2.09941,0.15545 -3.18101,0.23542 -18.55448,1.39215 -36.92467,2.80702 -55.17796,6.57676 -4.96318,1.02419 -9.90963,1.58071 -14.95209,2.07403 0.18347,-1.26004 0.36654,-2.52008 0.5555,-3.81831 3.27197,-31.25661 -6.61066,-59.69336 -21.91174,-86.71058 -0.55989,-1.00917 -1.11975,-2.01833 -1.69675,-3.05811 -0.76126,-1.32857 -0.76126,-1.32857 -1.53828,-2.6839 -1.18579,-3.2083 -0.87158,-4.913957 0.15435,-8.14179 1.86562,-2.51228 1.86562,-2.51228 4.30428,-5.20675 7.0528,-8.340416 12.46729,-17.562183 17.91128,-27.005712 0.41733,-0.717349 0.83497,-1.434709 1.26516,-2.173804 10.40173,-18.072343 19.28806,-38.05044 26.27025,-57.699475 1.34524,-3.4408 1.34524,-3.4408 3.5668,-4.551569 z"
     fill="#fdb454"
     id="path7"
     style="fill:#fdb400;fill-opacity:1;stroke-width:1.11076" /><path
     id="path2"
     style="fill:#4cb7bd;fill-opacity:1;stroke-width:1.00382"
     d="m 571.3316,153.37997 c -14.58759,-0.55467 -29.20123,0.66706 -43.14677,4.32499 -1.08765,0.34115 -2.14345,0.67249 -3.19937,1.00366 -36.78098,9.32212 -68.243,31.81659 -91.36337,61.61075 -0.67608,0.89458 -1.33193,1.76266 -1.98808,2.63104 -15.93057,20.74982 -27.77188,44.49275 -34.08523,69.89967 -0.22822,0.93485 -0.44912,1.84137 -0.67057,2.74868 -3.48529,14.1416 -4.68665,27.71682 -4.64249,42.22332 0.01,1.97123 0.0106,3.94161 0.01,5.91275 -0.01,5.46419 -0.01,10.92781 0,16.39182 0.0103,5.9623 0.0128,11.92551 0.0115,17.8877 -0.003,11.01075 -2.5e-4,22.02183 0.0119,33.03253 0.0119,10.94344 0.0232,21.88701 0.0232,32.83048 10e-5,0.70138 0.002,1.38185 0.002,2.06251 0,3.45893 -6.4e-4,6.91795 0,10.37689 0.004,24.47063 0.0162,48.94041 0.0362,73.41108 0.0183,23.80617 0.0312,47.61296 0.0411,71.41908 1.6e-4,0.75721 0.002,1.49233 0.002,2.22717 0.0101,7.38522 0.0101,14.77045 0.0101,22.15571 0.005,15.05877 0.006,30.11694 0.0152,45.17577 2.3e-4,0.71394 0.002,1.40692 0.002,2.09975 0.019,46.78887 0.0503,93.57723 0.0841,140.36599 h 2.00755 c 0.43072,-0.5013 0.84853,-0.9877 1.26642,-1.47414 5.33201,-7.59623 11.51054,-14.3141 17.80543,-21.11079 2.53112,-2.71611 5.0756,-5.41616 7.4871,-8.23994 8.37422,-9.29974 8.37538,-9.29833 17.2465,-18.13074 0.63498,-0.63235 1.25004,-1.24679 1.86635,-1.86053 10.45241,-10.43182 20.87366,-20.91424 32.04256,-30.58782 0.70916,-0.60651 1.39753,-1.19525 2.08593,-1.78405 1.16791,-1.0491 2.33934,-2.09436 3.51326,-3.13672 1.84932,-1.41468 1.84928,-1.41467 3.67784,-3.0585 4.38841,-5.08253 4.38844,-5.08163 4.2524,-20.89307 -0.0228,-2.50907 -0.017,-5.01718 0,-7.5262 0.011,-1.62343 0.0212,-3.24657 0.0322,-4.86995 0.006,-4.01684 0.0231,-8.01107 0.26271,-12.02187 3.01824,-31.39963 20.19004,-62.89576 43.84859,-83.62708 2.25552,-1.89587 4.45316,-3.80634 6.60305,-5.82283 6.55676,-6.1636 13.3942,-11.48805 20.82644,-16.54458 0.61376,-0.41497 1.20981,-0.8187 1.80558,-1.2214 7.90421,-5.38038 15.85831,-10.13873 24.47884,-14.31954 3.13228,-1.49984 6.24835,-3.02848 9.35757,-4.57578 0.67511,-0.33715 1.3307,-0.66482 1.98596,-0.99198 5.81001,-2.89841 11.5745,-5.87528 17.31513,-8.90844 4.34075,-2.30381 8.681,-4.60606 13.05687,-6.84236 25.85567,-13.13052 53.44777,-27.48075 72.89147,-49.6203 1.787,-2.12343 3.57621,-4.21296 5.46596,-6.24612 23.88865,-25.64369 42.11728,-58.95289 48.55388,-93.57478 0.31489,-1.83352 0.31488,-1.83352 0.62346,-3.63081 5.36729,-26.28763 5.7601,-56.51583 -0.3588,-82.688 -0.21894,-0.89502 -0.43245,-1.76455 -0.64498,-2.63319 -9.87321,-41.28951 -32.04975,-76.242 -65.57894,-102.36161 -0.91046,-0.69062 -1.79426,-1.36078 -2.67781,-2.03121 -19.77996,-15.12415 -42.93382,-26.47961 -67.11405,-32.59518 -1.08369,-0.26679 -1.08468,-0.26785 -2.14686,-0.52934 -13.84043,-3.44647 -28.4022,-5.77778 -42.98992,-6.33249 z m -2.89357,102.98529 c 11.94364,-0.37969 24.4791,1.64846 37.07503,6.61271 23.94236,8.57589 54.8455,39.06216 56.32332,77.07725 0.36876,24.49581 -5.44732,46.50348 -22.54969,64.75143 -10.37604,10.68222 -54.01731,49.73112 -111.35272,18.27184 -1.75614,-0.9776 -36.30898,-22.05428 -42.72327,-57.40362 -6.83738,-27.75958 0.99117,-55.2571 18.69529,-77.479 14.849,-18.50794 38.25579,-30.99553 64.53204,-31.83061 z" /><path
     d="m 698.20005,486.00301 c -19.4438,22.13956 -47.03635,36.48881 -72.8921,49.61936 -4.37588,2.23636 -8.71548,4.53957 -13.05638,6.84328 -5.74064,3.03321 -11.50498,6.01008 -17.31509,8.90849 -4.43318,2.21357 -7.50618,3.73028 -11.34361,5.56773 -8.6204,4.18083 -16.57446,8.93914 -24.47862,14.31958 -6.26297,4.23408 -14.02242,9.67229 -22.63218,17.76598 -28.69676,23.6923 -46.3884,55.62954 -50.64367,92.64951 -0.28167,6.06112 -0.41462,12.12777 -0.56466,18.19341 -0.0433,1.64685 -0.087,3.29365 -0.13136,4.94042 -0.10649,3.99947 -0.20826,7.99883 -0.30784,11.99833 h -1.00379 c -0.0151,-0.74519 -0.0286,-1.49035 -0.0432,-2.25795 -0.29069,-13.38173 -0.7512,-26.56078 -2.5279,-39.83786 -2.40085,-18.65716 -4.93135,-40.52035 2.57222,-58.28191 0.36653,-0.88021 0.73295,-1.76032 1.11067,-2.66726 8.70129,-25.16057 17.38607,-32.67617 37.66032,-49.84285 24.20381,-19.03218 52.91374,-23.32746 97.62131,-43.5075 4.09764,-1.76419 8.28148,-3.10754 12.54723,-4.40321 18.20156,-8.20828 35.40099,-17.47438 50.81202,-31.07404 5.98388,-4.89579 12.38274,-10.51727 17.18969,-14.24108 4.74848,-3.57305 30.63559,-28.95453 30.63559,-28.95453 -8.71433,16.4699 -20.74909,30.25769 -33.20769,44.2621 z"
     fill="#51adaf"
     id="path6"
     style="fill:#3b989c;fill-opacity:1;stroke-width:1.00382" /><path
     id="path3-9"
     d="m 341.4313,226.72963 c -22.42409,1.49495 -80.94882,1.97504 -98.76742,17.21625 -6.93921,7.04384 -9.45474,15.99354 -9.53559,25.6848 0.0101,1.07019 0.019,2.10796 0.0284,3.14659 0.003,34.74172 -0.0133,81.94045 -0.0159,116.68222 2.5e-4,0.84309 0.002,1.66108 0.002,2.47932 0.002,6.64019 0.005,13.28058 0.008,19.92062 0.003,5.80311 0.006,11.60615 0.008,17.40931 l 0.002,2.47761 c 0.005,13.69585 -0.002,27.39126 -0.0211,41.08704 -0.002,1.00221 -0.003,2.00462 -0.004,3.00692 13.71176,12.97822 25.09387,31.89951 25.93424,53.51786 0.33287,22.11272 -4.91717,41.97942 -20.35591,58.45208 -9.36655,9.64308 -48.76201,44.89302 -100.51954,16.4942 -1.58535,-0.88257 -32.77659,-19.90872 -38.566862,-51.81903 -6.172199,-25.05893 0.894732,-49.88135 16.876522,-69.94128 13.4044,-16.70732 34.53393,-27.98009 58.25384,-28.73402 5.04781,-0.16044 10.212,0.15497 15.44487,0.99646 0.78591,-29.26798 2.65103,-101.63701 2.69178,-121.0312 C 105.7479,369.14038 80.218054,380.6863 36.99304,438.668 11.988292,472.58146 9.4106494,516.80035 14.629235,563.07308 c 6.254903,39.74206 31.108665,80.51723 63.620431,104.91486 0.754559,0.54636 1.486929,1.07671 2.219292,1.60694 18.607483,14.28397 40.203062,24.37316 63.131372,29.44547 l 2.10959,0.45655 c 11.08251,2.52361 22.01091,2.93206 33.33536,2.94666 1.15456,-8.6e-4 1.15487,-8e-4 2.28668,-0.002 2.21032,-0.002 4.41904,-0.008 6.62949,-0.0229 0.70714,-0.007 1.39495,-0.0135 2.08126,-0.0194 37.48313,-0.23212 77.60316,-17.64757 104.10153,-44.07444 36.58496,-37.46711 47.80376,-81.27673 47.61225,-132.68679 -0.0147,-3.76508 -0.0179,-7.52969 -0.0161,-11.29481 0.004,-6.54767 -0.002,-13.09658 -0.016,-19.64438 -0.0222,-9.51939 -0.0337,-19.03763 -0.0369,-28.55701 -0.006,-15.45541 -0.0203,-30.91103 -0.0458,-46.36628 -0.0249,-15.03705 -0.0467,-30.0743 -0.0585,-45.11152 0,-0.95965 -8.6e-4,-1.89142 -0.002,-2.82275 -0.004,-4.67913 -0.008,-45.37305 -0.0112,-50.05198 -0.0283,-39.5395 -0.0763,-55.52039 -0.13808,-95.05977 z"
     style="display:inline;fill:#f8bf28;fill-opacity:1;stroke-width:0.906116" /><path
     id="path8-1"
     style="fill:#e8a500;fill-opacity:1;stroke-width:0.906116"
     d="m 243.5205,243.29411 c -15.07357,14.14845 -10.32935,43.69524 -10.35518,65.17914 -0.0199,13.6569 -0.0296,63.32942 -0.0247,76.98624 l 0.002,2.47932 c 0.002,6.64018 0.005,13.28058 0.008,19.92062 0.003,5.80311 0.006,11.60615 0.008,17.40931 l 0.002,2.47761 c 0.005,13.69585 -0.002,27.39126 -0.0211,41.08704 -0.002,1.00642 -0.003,2.01297 -0.004,3.01921 3.83059,3.69979 7.46699,7.86456 10.72663,12.42197 -0.005,-9.04307 -0.0163,-18.08556 -0.0357,-27.12876 -0.0233,-10.79744 -0.0362,-21.59464 -0.0389,-32.39202 -0.004,-10.51272 -0.0133,-21.02658 -0.0246,-31.53925 -0.005,-3.33482 -0.009,-6.6696 -0.0112,-10.00442 -0.004,-4.69479 0.65824,-128.83228 -0.23125,-139.91601 z" /></svg>
